<svg xmlns="http://www.w3.org/2000/svg" viewBox="0 0 70.39 56.4"><defs><style>.cls-1{fill:#684394;}</style></defs><title>Fichier 14</title><g id="Calque_2" data-name="Calque 2"><g id="Calque_1-2" data-name="Calque 1"><path class="cls-1" d="M70.39,41.85a165,165,0,0,1-.07-30.15L69,13.34c-.18-.54-.37-1.07-.55-1.61l-1.68,1.46-.45-3.74-2.41,2.2c.28-2.31-2.12-4.41-3.74-3.28l-.54-2.06L58.09,7.49l-.63-1.34a4.57,4.57,0,0,1-2.19,1.44,1.74,1.74,0,0,1-2-1.53,1.13,1.13,0,0,0-2.22-.22c-.17-.7-.35-1.4-.52-2.1L49,4.42l-.36-1.28L46.05,4.73A1.46,1.46,0,0,0,45.23,4,2.49,2.49,0,0,1,44,5.05l-.48-1.23a8.45,8.45,0,0,0-1.62,1.6l-.82-1.58-1.11.61-.47-.91L38.38,4.79a7.56,7.56,0,0,1-.88-4L35.82,4c-.22-1.32-.44-2.65-.67-4q-1.27,2.43-2.56,4.86l-.87-3-1.1,1.88-.94-1A6.12,6.12,0,0,1,26.2,5.78L24.74,7.07l-.57-1a2.5,2.5,0,0,1-.71,1.38.67.67,0,0,1-1-.56,6.1,6.1,0,0,1-3.25,3.75c-.69.77-1.4,1.5-2.14,2.2-.43-1.29-.87-2.57-1.3-3.86A8.89,8.89,0,0,1,14,11.53l-.6-3.1q-1.38,2.76-3,5.37a2.53,2.53,0,0,1-.86-1.61l-.66,2-.18-2.64L6.9,15.18c-.21-.43-.43-.86-.64-1.3a3.81,3.81,0,0,1-.82,1.57A6.42,6.42,0,0,0,4.62,13a17.63,17.63,0,0,1-1.08,3c-.11-.64-.23-1.27-.35-1.91-.21,1.42-.41,2.83-.61,4.25a4.73,4.73,0,0,1,.22-1.84q-1,9.87-1.31,19.83c0,.22-.08.48-.26.48s-.12-.44,0-.31A33.82,33.82,0,0,1,.11,44.34C.07,43.9,0,43.46,0,43L.45,56.4s-1.7-19,8.73-29.44,19.59-8.88,27.85-9S65,15.1,70.39,41.85"/></g></g></svg>