<svg xmlns="http://www.w3.org/2000/svg" viewBox="0 0 64.47 30.68"><defs><style>.cls-1{fill:#684394;}</style></defs><title>Fichier 23</title><g id="Calque_2" data-name="Calque 2"><g id="Calque_1-2" data-name="Calque 1"><path class="cls-1" d="M21,6.67c4.64,7.48,12.93,12,21.06,14.66,6.67,2.23,14.85,4.16,21.88,2.55.93-.21.54-1.65-.4-1.44C56.93,24,49.24,22.1,43,20.06,35,17.5,26.79,13.2,22.28,5.91c-.51-.81-1.8-.06-1.29.76"/><path class="cls-1" d="M22.26,7.67c5.9,3.76,12.84,6.19,19.47,8.29,6.83,2.16,14.4,4.38,21.66,3.9,1-.07,1-1.56,0-1.5-7.13.48-14.55-1.71-21.27-3.84C35.6,12.46,28.81,10.08,23,6.39c-.81-.52-1.56.77-.75,1.28"/><path class="cls-1" d="M22.44,7.75c6.13,2.5,13.11,3.45,19.59,4.59,6.21,1.1,12.62,2.38,18.94,2.52a.75.75,0,0,0,0-1.49c-6.37-.15-12.83-1.45-19.08-2.56S28.8,8.75,22.83,6.31c-.89-.36-1.27,1.08-.39,1.44"/><path class="cls-1" d="M22.83,7.75C29.56,6,36.5,5.19,43.4,6.36c6,1,11.67,3.37,17.2,5.88.86.4,1.62-.89.75-1.28C55.52,8.3,49.54,5.81,43.17,4.82A51,51,0,0,0,22.44,6.31a.75.75,0,0,0,.39,1.44"/><path class="cls-1" d="M64.47,23.16c-.08-8.64-4.16-17.42-12.54-20.78C42.08-1.56,29.41-.79,21,6.06c-.74.61.32,1.66,1.05,1.06C29.94.69,41.72.19,51,3.6c8.08,3,12,11.38,12,19.56a.75.75,0,0,0,1.49,0"/><path class="cls-1" d="M21,6.11C19.2,16.27,11.06,27.13.56,29.3c-.87.18-.5,1.52.37,1.34C11.87,28.38,20.46,17.09,22.3,6.48c.16-.88-1.18-1.25-1.33-.37"/><path class="cls-1" d="M20.6,6.83c-1.31,3.89-5.36,7.25-8.36,9.84a43.12,43.12,0,0,1-5.66,4.22c-1.12.68-3.05,2-4.46,1.59a.69.69,0,0,0-.37,1.33c1.45.43,3.06-.38,4.3-1a37.6,37.6,0,0,0,6.37-4.47c3.48-2.89,8-6.67,9.51-11.12.28-.84-1.05-1.2-1.33-.36"/><path class="cls-1" d="M20.68,6.41c-5.29,4.72-12,7.32-17.92,11-.82.51-.07,1.8.75,1.29C9.56,15,16.34,12.27,21.73,7.47c.72-.64-.34-1.69-1.05-1.06"/><path class="cls-1" d="M21.83,5.57C16,4.41,10.15,7,6.32,11.44,1.92,16.55.48,23.42,0,30c-.07,1,1.42,1,1.49,0,.43-5.8,1.63-11.82,5.17-16.58C10,8.86,15.74,5.88,21.44,7c.93.19,1.34-1.25.39-1.44"/></g></g></svg>