<svg xmlns="http://www.w3.org/2000/svg" viewBox="0 0 77.67 20.12"><defs><style>.cls-1{fill:#684394;}</style></defs><title>Fichier 30</title><g id="Calque_2" data-name="Calque 2"><g id="Calque_1-2" data-name="Calque 1"><path class="cls-1" d="M69,4.71,66.83,6.4c-1,.74.08,2.2,1.11,1.92L72.2,7.16c-.3-.69-.59-1.39-.88-2.09A12.2,12.2,0,0,0,67.47,8.4c-.67.88.44,1.83,1.3,1.68l2-.35c-.38-.64-.75-1.28-1.12-1.92l-.78.85A1.16,1.16,0,0,0,70,10.58a14.71,14.71,0,0,1,3.17-.33l-.81-2-3,2.54a1.16,1.16,0,0,0,.51,1.92,6.54,6.54,0,0,0,1.65.34l-.81-2-1.28,1.11A1.16,1.16,0,0,0,70,14.16a7.94,7.94,0,0,0,2.17.29l-1-1.73c-.13.23-.27.45-.4.67A1.16,1.16,0,0,0,72,15.08l-.83-.51c.09-.37.19-.74.29-1.11l-.32.11a1.16,1.16,0,0,0,0,2.21,9.62,9.62,0,0,0,2.06.4L72.66,14c-2.31,1.67-.94,4.16,1.68,4.14-.19-.71-.38-1.43-.58-2.14l-.62.47a1.17,1.17,0,0,0,0,2,2.67,2.67,0,0,0,1.32.36c1.47.11,1.46-2.19,0-2.29l-.16-.06v2l.62-.48a1.16,1.16,0,0,0-.58-2.14l-.52.14a1.15,1.15,0,0,0-.58-2.13,4.83,4.83,0,0,1-1.45-.32v2.21a3.28,3.28,0,0,0,1.33-.7,1.13,1.13,0,0,0,.3-1.12,1.53,1.53,0,0,0-2-1.1l1.29,1.69c.14-.22.27-.45.4-.67a1.16,1.16,0,0,0-1-1.73,3.62,3.62,0,0,1-1.56-.2l.51,1.91,1.27-1.11c.83-.73.08-1.86-.81-2l-1-.25L71,12.45l3-2.54a1.16,1.16,0,0,0-.81-2,19.19,19.19,0,0,0-3.78.41c.38.64.75,1.28,1.12,1.92l.78-.84A1.16,1.16,0,0,0,70.2,7.52l-2,.35,1.3,1.68a9.68,9.68,0,0,1,3-2.5A1.15,1.15,0,0,0,71.59,5L67.33,6.11,68.45,8,70.6,6.33c1.16-.91-.47-2.52-1.62-1.62"/><path class="cls-1" d="M3.38,9.36A13.8,13.8,0,0,1,6.72,12c.08-.6.16-1.2.23-1.8-.51.25-1.95-.64-2.54-.66a2.07,2.07,0,0,0-2,.94,2.22,2.22,0,0,0,0,2c.58,1.69,1.43,3.34,2.13,5,.53,1.24,2.38.33,2.1-.88l-.27-1.13-2.1.89c.61.94.76,1.87,1.93,2.26a2,2,0,0,0,2.27-.52c.4-.51.53-1.48-.23-1.8A7.47,7.47,0,0,0,4,15.76c.2.74.4,1.48.61,2.22l1.8-.54c-.2-.74-.4-1.48-.61-2.21A22.25,22.25,0,0,0,.53,18a1.16,1.16,0,0,0,.58,2.14,17.1,17.1,0,0,0,4.39-.44L4.39,17.75h.09l.81,2a2.68,2.68,0,0,0,.11-3.67A8.3,8.3,0,0,0,3.92,15c0-.25.72-.86.66-1.51a2.43,2.43,0,0,0-.74-1.41c-.2-.22-.75-.46-.82-.71-.11-.41,0,0,.23-.49s.81-.83.77-1.62-.71-.89-.91-1.5l-.3,1.11c.57-.69,1.45-.57,1.6-1.61.2-1.44-2-2.07-2.22-.61.29-.25.29-.3,0-.14l-.57.3a2,2,0,0,0-.53.56A1.53,1.53,0,0,0,1.13,9c.6,1,.63-.12-.15.93a2.1,2.1,0,0,0-.47,1.66A2.63,2.63,0,0,0,1.4,13c1,1,.62.37.3,1.41A2.11,2.11,0,0,0,1.64,16c.22.5,2.28,1.82,2,2.14-.54.68-.3,2.07.81,2A1.87,1.87,0,0,0,6,19.38a1.16,1.16,0,0,0-1.12-1.92,15,15,0,0,1-3.78.36c.19.71.39,1.42.58,2.13a19.85,19.85,0,0,1,4.7-2.51c1.36-.51.84-2.64-.61-2.21L4,15.76A1.15,1.15,0,0,0,4.59,18a4,4,0,0,1,2.48.29c-.07-.6-.15-1.2-.23-1.8.13-.17-.53-1.18-.6-1.28a1.15,1.15,0,0,0-2.09.88c.08.38.17.75.26,1.13l2.1-.89c-.46-1.07-.9-2.16-1.38-3.23s-.81-1.05.17-.93c1.13.14,1.7.57,2.81,0a1.16,1.16,0,0,0,.24-1.8,15.64,15.64,0,0,0-3.82-3,1.15,1.15,0,0,0-1.15,2"/><path class="cls-1" d="M68.19,2.23l2.14.37L69.82.68a6.17,6.17,0,0,0-2,3.67,1.17,1.17,0,0,0,.8,1.41,8.89,8.89,0,0,0,2,.25L69.51,4.55c-.11.37-.21.73-.32,1.09a1.16,1.16,0,0,0,.68,1.68l1.46.49-.69-1.68c-.87,1.39-1.35,2.82-.46,4.35A4.48,4.48,0,0,0,71.75,12c.68.41,3,1.47,3.66,1.06-1.22.81-.07,2.8,1.16,2a2,2,0,0,0,.48-3.25c-1.57-1.69-6.61-1.06-4.42-4.54a1.16,1.16,0,0,0-.69-1.68l-1.46-.49.69,1.69a4.44,4.44,0,0,0,.56-1.64,1.17,1.17,0,0,0-1.11-1.45,3.59,3.59,0,0,1-1.38-.17L70,5a4.32,4.32,0,0,1,1.4-2.66,1.16,1.16,0,0,0-.5-1.92L68.8,0c-1.45-.25-2.07,2-.61,2.21"/><path class="cls-1" d="M5.68,7.54c.33-.76.65-1.53,1-2.29a1.15,1.15,0,0,0-2-1.16A17.19,17.19,0,0,0,2.82,7.23,1.16,1.16,0,0,0,4.39,8.8L7.06,7.44l-1.15-2L5,6.13a1.15,1.15,0,0,0,1.16,2l.94-.68a1.15,1.15,0,0,0-1.15-2L3.23,6.82,4.8,8.39A17.42,17.42,0,0,1,6.66,5.25l-2-1.16c-.33.77-.66,1.53-1,2.3A1.19,1.19,0,0,0,4.11,8a1.15,1.15,0,0,0,1.57-.42"/><path class="cls-1" d="M76.47,14.35,74.37,6l-2.21.61,1.2,4.24c.33,1.2,2.38,1,2.25-.3-.18-1.86-.4-3.72-.64-5.58a1.16,1.16,0,0,0-2.26-.3c-.29.83-.58,1.67-.88,2.51-.49,1.39,1.73,2,2.22.61.29-.84.58-1.68.88-2.51l-2.26-.31c.25,1.86.46,3.72.65,5.58l2.25-.31L74.37,6a1.15,1.15,0,0,0-2.21.61q1.05,4.18,2.09,8.39a1.15,1.15,0,0,0,2.22-.61"/><path class="cls-1" d="M71.49,6a5.33,5.33,0,0,0,1.6.29c-.27-.65-.54-1.31-.82-2-.9.82-2.7,1.86-2.85,3.19C69.3,8.6,70.5,8.79,70.6,9.2a6.21,6.21,0,0,0-.24,1.21,2.37,2.37,0,0,0,.51,1.17,6.59,6.59,0,0,0,3.25,1.83V11.19c-3.87,1.5-2.13,5.6,1.61,5.4,1.47-.08,1.48-2.37,0-2.29-.64.21-1-.09-1-.89a1.16,1.16,0,0,0,0-2.22c-.83-.28-1.76-.44-2-1.37-.08-.3.26-.89.2-1.26-.15-1-.9-1.26-1.72-1.65l.57,1c0-.26,1.82-1.7,2.13-2a1.16,1.16,0,0,0-.81-2l-1-.2c-1.41-.45-2,1.76-.61,2.21"/></g></g></svg>