<svg xmlns="http://www.w3.org/2000/svg" viewBox="0 0 51.89 48.41"><defs><style>.cls-1{fill:#684394;}</style></defs><title>Fichier 24</title><g id="Calque_2" data-name="Calque 2"><g id="Calque_1-2" data-name="Calque 1"><path class="cls-1" d="M2.62,24.54a.69.69,0,0,0,0-1.37.69.69,0,0,0,0,1.37"/><path class="cls-1" d="M1.55,19a.69.69,0,0,0,0-1.37.69.69,0,0,0,0,1.37"/><path class="cls-1" d="M3.05,14.65a.69.69,0,0,0,0-1.37.69.69,0,0,0,0,1.37"/><path class="cls-1" d="M6.28,11.21a.69.69,0,0,0,0-1.37.69.69,0,0,0,0,1.37"/><path class="cls-1" d="M7.57,8a.69.69,0,0,0,0-1.37A.69.69,0,0,0,7.57,8"/><path class="cls-1" d="M14.45,6.26a.69.69,0,0,0,0-1.37.69.69,0,0,0,0,1.37"/><path class="cls-1" d="M16.38,3.47a.69.69,0,0,0,0-1.37.69.69,0,0,0,0,1.37"/><path class="cls-1" d="M24.34,3.9a.69.69,0,0,0,0-1.37.69.69,0,0,0,0,1.37"/><path class="cls-1" d="M14.23,10.13a.69.69,0,0,0,0-1.37.69.69,0,0,0,0,1.37"/><path class="cls-1" d="M8,14.22a.69.69,0,0,0,0-1.37.69.69,0,0,0,0,1.37"/><path class="cls-1" d="M20.26,9.27a.69.69,0,0,0,0-1.37.69.69,0,0,0,0,1.37"/><path class="cls-1" d="M24.34,9.27h.22a.68.68,0,0,0,.68-.68.7.7,0,0,0-.68-.69h-.22a.69.69,0,0,0,0,1.37"/><path class="cls-1" d="M28,9.27A.69.69,0,0,0,28,7.9a.69.69,0,0,0,0,1.37"/><path class="cls-1" d="M34.24,9.49a.69.69,0,0,0,0-1.37.69.69,0,0,0,0,1.37"/><path class="cls-1" d="M37.46,9.49a.69.69,0,0,0,0-1.37.69.69,0,0,0,0,1.37"/><path class="cls-1" d="M39.92,9.8l.43.22a.7.7,0,0,0,.94-.25A.69.69,0,0,0,41,8.84l-.42-.22a.69.69,0,1,0-.7,1.18"/><path class="cls-1" d="M44.34,12.71h.22a.68.68,0,0,0,.68-.68.7.7,0,0,0-.68-.69h-.22a.7.7,0,0,0-.68.69.69.69,0,0,0,.68.68"/><path class="cls-1" d="M47.78,20.67H48a.68.68,0,0,0,.68-.68A.69.69,0,0,0,48,19.3h-.22a.69.69,0,0,0,0,1.37"/><path class="cls-1" d="M49.29,28.84a.69.69,0,0,0,0-1.37.69.69,0,0,0,0,1.37"/><path class="cls-1" d="M49.72,34.44a.69.69,0,0,0,0-1.38.69.69,0,0,0,0,1.38"/><path class="cls-1" d="M49.89,41.28v.43a.69.69,0,0,0,1.38,0v-.43a.69.69,0,1,0-1.38,0"/><path class="cls-1" d="M51.23,48.41a.69.69,0,0,0,0-1.37.69.69,0,0,0,0,1.37"/><path class="cls-1" d="M.9,39.81a.69.69,0,0,0,0-1.37.69.69,0,0,0,0,1.37"/><path class="cls-1" d="M1.37,32v-.22a.69.69,0,0,0-.69-.68.69.69,0,0,0-.68.68V32a.69.69,0,0,0,1.37,0"/><path class="cls-1" d="M32.51,5.4a.69.69,0,0,0,0-1.37.69.69,0,0,0,0,1.37"/><path class="cls-1" d="M26.71,1.75a.69.69,0,0,0,0-1.38.69.69,0,0,0,0,1.38"/><path class="cls-1" d="M18.75,3a.69.69,0,0,0,0-1.38.69.69,0,0,0,0,1.38"/><path class="cls-1" d="M20.47,5.83a.69.69,0,0,0,0-1.37.69.69,0,0,0,0,1.37"/><path class="cls-1" d="M37,6.26a.69.69,0,0,0,0-1.37.69.69,0,0,0,0,1.37"/><path class="cls-1" d="M28.09,5.39a.69.69,0,0,0,0-1.37.69.69,0,0,0,0,1.37"/><path class="cls-1" d="M11.28,3.2a.69.69,0,0,0,0-1.37.69.69,0,0,0,0,1.37"/><path class="cls-1" d="M43.44,7.22a.69.69,0,0,0,0-1.37.69.69,0,0,0,0,1.37"/><path class="cls-1" d="M32.29,1.37a.69.69,0,0,0,0-1.37.69.69,0,0,0,0,1.37"/></g></g></svg>