<svg xmlns="http://www.w3.org/2000/svg" viewBox="0 0 80.84 66.88"><defs><style>.cls-1{fill:#684394;}</style></defs><title>Fichier 26</title><g id="Calque_2" data-name="Calque 2"><g id="Calque_1-2" data-name="Calque 1"><path class="cls-1" d="M27.68,25a3.71,3.71,0,0,0-1.87-6c-3.23-.86-5.43,2.76-5.06,5.55a1.18,1.18,0,0,0,1.45,1.11c3.64-.56,2.31-5.71-1.17-5.47-2.92.2-6.19,5.08-3.61,7.51s5.2-2.15,2.86-4.14c-2.66-2.27-8.21.78-8.14,4.14.08,3.69,5.69,3.65,5.13.2-.67-4.09-6.37-1.25-7.33,1.18s1.27,8.26,4.44,6C17.3,33,13.79,29.23,11,31s-2.48,8.21,1,8.92,3.4-5.24-.62-3.63c-2.61,1-6.44,5.63-2.72,7.88,2.63,1.6,5.94-2.21,3.09-4.09-3.62-2.39-5.86,3.27-5.15,6,.84,3.21,6.21,4.87,7,.78a2.92,2.92,0,0,0-1.44-3.27c-1.85-.87-3.7.55-4.77,2-1.82,2.42-3.53,9,.41,10.52s3.94-5.61,1.06-6.77C5.07,47.74,2.59,55,5.81,56.92c4.06,2.49,5.19-4.58,1.52-4.1-1.94.25-2.39,3-2.37,4.55a8.31,8.31,0,0,0,2.89,6.2,1.19,1.19,0,0,0,1.39.18c1.68-.9,1.45-3.29-.07-4.28C7.11,58.14,5,60.21,4.36,62s-.3,5.2,2.46,4.81a2,2,0,0,0,.6-3.74c-1.33-.63-2.49,1.35-1.16,2a4.78,4.78,0,0,1,.44-2.7c.21-.73.67-.94,1.38-.62L9.47,62a6.09,6.09,0,0,1-2.2-5.19A2.52,2.52,0,0,0,6.57,54a4.3,4.3,0,0,1,.51-1.79c1.51-1.35,2.06,1.35,1.18,1.32-.66,0-.43-3-.37-3.38a7.69,7.69,0,0,1,1-2.78,4.88,4.88,0,0,1,1.4-1.53q2.4,1-.69.9c-1.12-.54-1.2-2.8-.6-3.71.11-.55.5-.81,1.16-.8a1.13,1.13,0,0,1-.49-1.75c.47-1,1.81-1.17,2.28-2,.59-1-.68-2.76-.59-3.91-.08-1.21.48-1.69,1.71-1.43A2.86,2.86,0,0,1,12,31.61c-.39-1.39.31-2.21,1.27-3.05a1.33,1.33,0,0,0,1.15-.83A2.43,2.43,0,0,1,15.74,26a6.55,6.55,0,0,1,1.52-.7c1.22.72,1.8.57,1.73-.46a5.06,5.06,0,0,1,.92-1.61c.78-1,1.34-.9,1.68.29L23,24.58c-.14-1.1,0-2.49,1.13-3.06s3.07.6,1.89,1.86c-1,1.08.61,2.71,1.62,1.63"/><path class="cls-1" d="M25.13,21c-.71-3.65-5.71-4.63-8.86-4.39-2.66.2-5.9,3.6-3.2,6,2.34,2.1,5.93-1.15,4-3.66-2.22-2.85-5.88.23-4.43,3.16a1.12,1.12,0,0,0,1,.57c2.46-.22,1.7-3.89-.62-3.26s-3.45,4.81-1.1,6a1.2,1.2,0,0,0,1.39-.18c2.31-2.18-.82-5.3-3.37-4.29-2.3.92-6.54,6.74-2.43,8.16,2.91,1,3.34-4.21,0-3.65s-2.77,6-.23,7.22a1.17,1.17,0,0,0,1.57-.41c1.57-3.2-3.1-5.07-4.87-2.16-1.52,2.52.22,8.34,3.88,6.16a2.24,2.24,0,0,0,.63-3.42,3.11,3.11,0,0,0-4-.07c-2.79,2-2,6.3.52,8.1a1.15,1.15,0,0,0,1.39-.18C8.74,37.9,4.89,34.26,2,36.39s-2.42,8.83,2,8.27c4-.51,3-6.49-1-5.2-3.63,1.18-3.83,7.34-.72,9.1a1.16,1.16,0,0,0,1.39-.18A2.09,2.09,0,0,0,4,45.75a1.15,1.15,0,0,0-1.56-.41A4.9,4.9,0,0,0,1.57,53L3,51.15a1.86,1.86,0,1,0-1.28,3.37c1.44.25,2.06-2,.61-2.21-.17.27-.33.55-.49.82a1.15,1.15,0,0,0,1.39-1.8,2.58,2.58,0,0,1,.35-4L2,46.91a.83.83,0,0,0,0-.15l1.39-.18a2.22,2.22,0,0,1-1-2.25A12.3,12.3,0,0,1,3.11,42c-.34.33-.55,0-.64-.94a2.17,2.17,0,0,1,0-1.31,2.32,2.32,0,0,1,.7-1.42c1.26-.41,1.78-.16,1.59.75l1.39-.18a2.87,2.87,0,0,1-.76-3.79c.28-.23.56-.46.85-.68a2.43,2.43,0,0,1-.63-1.72c0-.25.05-.49.07-.74,0-.71.42-1,1.16-.86l1.57-.41c-2-1-.51-4.25.29-5.51a7.54,7.54,0,0,1,1-1.3,1.46,1.46,0,0,1,1.24-.77c.44-.24.68-.08.72.49l1.39-.17s.07-2.92-.15-2.53l1-.57-.28,0,1,.56c-1.26-2.54,3.37-2.08,4.53-1.86,1.54.29,3.44.73,3.79,2.49.28,1.45,2.49.84,2.21-.61"/><path class="cls-1" d="M29.8,24c5.48-.47,2.21-8.39-1.63-6.15-1.8,1.05-.92,3.46.72,4.08s4.13.2,4.84-1.56c1.6-3.95-6.33-8.32-8-4.37-.72,1.72,1.2,3.13,2.77,2.47,2-.85,1.87-3.58.61-5-1.41-1.57-4.92-2.58-6.54-.85-1.46,1.56-.05,4.29,2.08,3.4a1.16,1.16,0,0,0,.8-1.41c-.74-2.33-6.14-5.11-7.44-1.94-1.17,2.87,3.9,3.25,3.48-.15-.4-3.2-4.9-3.57-6.9-1.75-2.26,2.07-.55,6.38,2.54,4.65a1.15,1.15,0,0,0-1.16-2c.58-.34.26-1.15,1.13-1.46s1.88.43,2.56,1a4.36,4.36,0,0,0,1.8,1c.73.3,1.48.38,1.78,1.31.27-.47.54-.94.8-1.41a10,10,0,0,1,2.76.75l1.56,2.33a2.3,2.3,0,0,1,1.24.23,2.91,2.91,0,0,1,1.66,1.29l-.12,1.36c-1-.09-1.49.55-1.37,1.92-1.46.12-1.47,2.42,0,2.29"/><path class="cls-1" d="M42,20.12c-1.55,3.59,2.17,6.09,5.45,4.9,1.31-.48,2.66-1.5,2.74-3a2.4,2.4,0,0,0-2.53-2.49c-3.31-.21-5.49,3.49-2.59,5.75,2.36,1.84,7.46-.34,6.91-3.6s-5-1.3-4.3,1.75c.73,3.35,6.34,4.47,8.78,2.41s-.69-5.86-2.69-3.45c-2.23,2.68,1.77,6.2,4.46,4.36,3.32-2.28-.38-6.83-2.36-3.64a3.45,3.45,0,0,0,.58,4c1.59,1.72,4.11,1.31,6.14.85,1.44-.33.83-2.54-.61-2.21a7.6,7.6,0,0,1-2.41.3,1.77,1.77,0,0,1-1.61-.73l-3.52-1c-1.85-.09-2.87.32-4.39-1-.9-.79-.55-.49-1.51,0-1.43.86-2,.67-1.71-.56q-.45-1.08.42-.93c.67-.15.64.12-.11.82l-.91.35c-1,.21-2.84-.33-2.25-1.72s-1.39-2.51-2-1.16"/><path class="cls-1" d="M45.66,18.83c1.86.74,4.79,2.34,6.22-.08,1-1.68-.29-4-2.32-3.44s-2.1,3.33-.63,4.55c2.14,1.77,5.5,1.07,7.74,0,1.33-.65.17-2.63-1.15-2-3.24,1.6-6.2,0-9.25-1.22-1.37-.56-2,1.66-.61,2.21"/><path class="cls-1" d="M53.27,18.19a6.87,6.87,0,0,0,6.57,3.28,1.16,1.16,0,0,0,1-1.72c-1.35-2.64-5-.38-3.67,2.24,1.71,3.35,7.67,1.4,10.18.32L66,20.51c-2.14,1.76-3.05,5.39-.7,7.4a4.07,4.07,0,0,0,6.21-1.12,1.17,1.17,0,0,0-1-1.73c-3.07-.13-5.87,3-4.64,6a4.67,4.67,0,0,0,6.75,2l-1.39-1.8a12.81,12.81,0,0,0-2.79,6.15,1.17,1.17,0,0,0,1.11,1.45A3.4,3.4,0,0,0,71.74,38l-1.63-1.63a5,5,0,0,0,.45,7.2c1.89,1.59,6.1.78,4.45-2.24a1.16,1.16,0,0,0-1.8-.24c-2.75,2.17-5.1,6.78-3.33,10.24,1.39,2.73,6.09,1.86,5-1.36a1.18,1.18,0,0,0-1.42-.8,3.9,3.9,0,0,0,0,7.61,1.15,1.15,0,0,0,.61-2.22,1.6,1.6,0,0,1,0-3.18l-1.41-.8c-.64-.15-1-.5-1-1.06a3,3,0,0,1-.06-1,6.9,6.9,0,0,1,.45-2.2,8,8,0,0,1,2.71-3.56L73,42.45c-.42-.78-1.37-.75-1.76-1.8A2.51,2.51,0,0,1,71.74,38a1.15,1.15,0,0,0-1.63-1.63l-.6.26c.36.49.73,1,1.1,1.46a10.59,10.59,0,0,1,2.21-5.14c.75-.94-.21-2.56-1.39-1.8a2.44,2.44,0,0,1-3.13-.34c-1.31-1.55.48-3.5,2.17-3.43l-1-1.72a1.72,1.72,0,0,1-3,.12c-.81-1.28.09-2.78,1.11-3.62s-.3-2.26-1.39-1.8-6.43,2.33-7.33.57l1-1.72A4.62,4.62,0,0,1,55.25,17c-.79-1.23-2.78-.09-2,1.16"/><path class="cls-1" d="M44.05,13c-.91,2.3,1.84,3.08,3.54,2.46,2-.71,3.36-3,2.17-5a2.68,2.68,0,0,0-4.35-.24c-1.38,2,.58,4,2.51,4.31s4.67-.3,5.67-2.21c.72-1.36.12-3.95-1.89-3.42S50,12.42,51,13.65a3.59,3.59,0,0,0,5.53,0,1.16,1.16,0,0,0-.81-2,2.57,2.57,0,0,0-1,4.81c2.83,1.67,6.78-.83,8.78-2.73a1.16,1.16,0,0,0-.81-2,2.48,2.48,0,0,0-1.42,4.4c2.29,1.87,4.76-.44,6.1-2.21a1.16,1.16,0,0,0-1.3-1.68c-1.72.71-3.52,2.61-2.68,4.65.94,2.26,5,2.07,7,1.86L70,16.61a2.5,2.5,0,0,0-1.48,4.22c1.6,1.66,3.92.74,4.89-1.07l-2.14-.58c0,.39-.1.79-.16,1.19-.19,1.45,2.1,1.44,2.3,0,0-.4.1-.8.16-1.19.15-1.16-1.64-1.53-2.14-.58l-.82.23c1.26-.22,1-2.4-.31-2.26a11.27,11.27,0,0,1-3.28,0c-1.06-.18-2.88-1-.4-2l-1.29-1.69a8.4,8.4,0,0,1-1,1.12c-.7.81-1.29.86-1.75.14l-.81-2A10,10,0,0,1,59.31,14a8.86,8.86,0,0,1-1.66.59A1.57,1.57,0,0,1,55.7,14l-.81-2a1.79,1.79,0,0,1-2.55.22,1.64,1.64,0,0,0-2.09-.13c-1.17.11-3.61.53-4,1.49.55-1.37-1.67-2-2.21-.61"/><path class="cls-1" d="M72.51,22.12a4.1,4.1,0,0,0,4.31,7c-.46-.61-.93-1.21-1.39-1.81-1.33,1.59-3.52,5.6-.79,7A1.9,1.9,0,0,0,77,31.39c-2.15-2.2-4.39,1.11-4.79,3a7.43,7.43,0,0,0,2.66,7.25,1.18,1.18,0,0,0,1.39.17A2.48,2.48,0,0,0,77.58,40a1.15,1.15,0,0,0-2.1-.88c-1.15,1.92-2.43,5.25-.8,7.29A2.45,2.45,0,0,0,79,45.54c.27-1.21-1.47-2.08-2.1-.88a11.19,11.19,0,0,0-1,7.9,1.17,1.17,0,0,0,1.41.8l1.42-.4-1.29-1.68a6.65,6.65,0,0,0,1.43,8.1c1.09,1,2.72-.64,1.62-1.63a4.3,4.3,0,0,1-1.07-5.31,1.17,1.17,0,0,0-1.3-1.69l-1.42.4,1.41.8a8.59,8.59,0,0,1,.81-6.13l-2.1-.89a1.31,1.31,0,0,1-.5-1.42,3.8,3.8,0,0,1,.19-1.11,8.35,8.35,0,0,1,1-2.18l-2.09-.88-.27.51,1.39.18a5,5,0,0,1-1.6-6.36c.62-1.59,1-3.42,2.16-4.75a1.15,1.15,0,0,0-1.39-1.8,1.81,1.81,0,0,1-2-3c1.17-.88,0-2.87-1.16-2"/><path class="cls-1" d="M35.94,21.11a3.2,3.2,0,0,0,3.19-5c-1.47-2.07-5-1-4.37,1.7S39.12,19,39.66,17c.74-2.85-2.43-4.55-4.74-3.24.53.52,1,1,1.57,1.57a2.91,2.91,0,0,0-1.34-4,2,2,0,0,0-2.78,2.21,1.15,1.15,0,0,0,.8.8c2,.61,2.95-1.58,2.14-3.17-1.17-2.33-4.64-3-7-3.12.1.75.2,1.5.31,2.25,2.5-.5,1.68-3.23.23-4.43a6.2,6.2,0,0,0-6.78-.6c-1.33.65-.17,2.62,1.16,2a3.93,3.93,0,0,1,2.52-.37c.58.1,2,1.26,2.26,1.21-1.34.27-.93,2.17.3,2.25,2.13.15,3.5,1.18,5.43,1.79l.8.8c0-.14,0-.28-.07-.42l-.3,1.11.3.59a1.16,1.16,0,0,0,1.57,1.57c.16,1.07.31,2.14.47,3.21-1.45-.22-2.07,2-.61,2.21"/><path class="cls-1" d="M43,18c.62-3.55-2.44-6.53-6-5.09a1.16,1.16,0,0,0-.5,1.92c1.79,1.76,4.41.46,4.75-1.88.42-2.86-2-5.12-4.64-5.62.09.7.18,1.4.28,2.1a3.13,3.13,0,0,0,1.57-3.53,2.82,2.82,0,0,0-1-1.6c-.81-.61-3.26-1-2.57-2.51s-1.35-2.49-2-1.16a3.32,3.32,0,0,0,0,3.11,4.25,4.25,0,0,0,1.28,1.45c.32.23,3,1.47,1.59,2.26A1.15,1.15,0,0,0,36,9.5a4,4,0,0,1,2.18,1l.56.73c.52.82.32,1.46-.62,1.92l-.51,1.91c1.67-.68,3.51.24,3.15,2.27-.25,1.45,2,2.07,2.22.61"/></g></g></svg>