<svg xmlns="http://www.w3.org/2000/svg" viewBox="0 0 79.98 80.31"><defs><style>.cls-1{fill:#684394;}</style></defs><title>Fichier 25</title><g id="Calque_2" data-name="Calque 2"><g id="Calque_1-2" data-name="Calque 1"><path class="cls-1" d="M59.76,17.11C54.82,26,43.27,24.31,35,22.71c-1.44-.28-2.06,1.93-.61,2.21,9.38,1.81,21.87,3.25,27.38-6.65.72-1.29-1.26-2.45-2-1.16"/><path class="cls-1" d="M51.86,15.42c-4.77,9-16.32,7.55-24.66,6.11-1.45-.25-2.07,2-.61,2.21,9.39,1.62,21.94,2.85,27.25-7.16.69-1.3-1.29-2.46-2-1.16"/><path class="cls-1" d="M44.36,12.84A105.49,105.49,0,0,1,19.87,23.41a1.15,1.15,0,0,0,.61,2.21,107.88,107.88,0,0,0,25-10.8,1.15,1.15,0,0,0-1.16-2"/><path class="cls-1" d="M52.84,14.61c-7.35-2.43-15.48-4.14-23-1.3-6.51,2.47-10.37,7.75-11.95,14.42C16,35.63,15.62,44,14.63,52.08Q13,65.66,11.32,79.22c-.18,1.46,2.12,1.45,2.29,0C15.54,63.46,17,47.54,19.45,31.86,20.53,24.94,23.12,18.61,30,15.73c7.21-3,15.13-1.27,22.26,1.09,1.4.47,2-1.74.61-2.21"/><path class="cls-1" d="M53.11,11.88c-9.47-6.7-23.27-6.4-32.77.12-5.69,3.9-9,9.86-11,16.34C6.87,36.07,7.36,44,6.78,52c-.61,8.53.8,17.05.08,25.55C6.74,79,9,79,9.16,77.56c.56-6.7-.44-13.4-.39-20.1,0-3.58.44-7.15.55-10.73A97.8,97.8,0,0,1,10,35.51c1-6.94,3.62-14.47,8.82-19.39A26.26,26.26,0,0,1,34,9.46a26.15,26.15,0,0,1,18,4.4c1.21.86,2.36-1.13,1.16-2"/><path class="cls-1" d="M54.66,14.22C53.16,6.45,45.6,1.44,38.17.29c-9.26-1.43-18.54,2.6-25.8,8.07C8.74,11.1,5.09,14.33,3,18.47,1.1,22.34.54,26.66.25,30.92A129.48,129.48,0,0,0,.62,51.29C1.25,58.55,2.5,66.09,2,73.38c-.11,1.47,2.18,1.47,2.29,0,.4-5.49-.38-11.14-.86-16.61-.53-5.93-1.28-11.92-1.26-17.89,0-7.68.13-16.74,5.3-22.9C13.1,9.25,22,3.84,30.72,2.57S50.59,5.2,52.45,14.83c.28,1.44,2.49.83,2.21-.61"/><path class="cls-1" d="M53.6,16.86c1.69-.21,3.75-.56,5.27.44s2.13,2.84,2.82,4.29c1.32,2.76,2.45,5.6,3.83,8.33a10.6,10.6,0,0,0,4.25,5c1.35.72,3.35,1.48,4.69.41,1.16-.92-.47-2.53-1.62-1.62.4-.32-.43-.22-.71-.29a6,6,0,0,1-2.08-1.06,7.7,7.7,0,0,1-2-2.58c-1.33-2.4-2.35-5-3.49-7.47-1-2.18-1.93-4.8-3.78-6.43s-4.69-1.63-7.16-1.32c-1.45.18-1.47,2.48,0,2.3"/><path class="cls-1" d="M75.36,64.46c.62-11.34,1-23-1.15-34.23-1.12-5.82-3.21-11.8-7.16-16.36-3.53-4.07-13-6.43-15,.49a1.15,1.15,0,0,0,2.21.61c1.48-5.16,8.85-2.15,11.14.52a26,26,0,0,1,3.13,4.82,34.86,34.86,0,0,1,2.89,8C74.27,40,73.72,52.56,73.06,64.46c-.08,1.47,2.22,1.47,2.3,0"/><path class="cls-1" d="M54.78,15.93c-.23-3.85,2.74-6.61,6.31-7.43a11.09,11.09,0,0,1,10,2.89c4.62,4.26,6.77,10.93,6.54,17.09-.32,8.29-1.08,16.56-1.57,24.84a106.26,106.26,0,0,0-.42,11.14c.07,1.47,2.37,1.47,2.3,0a107.28,107.28,0,0,1,.44-11.62c.33-5.44.71-10.87,1.07-16.31.27-4.19.84-8.54.25-12.72-.94-6.63-4.82-14.17-11.3-16.87s-16.43.77-15.93,9c.09,1.47,2.38,1.48,2.29,0"/></g></g></svg>