<svg xmlns="http://www.w3.org/2000/svg" viewBox="0 0 78.2 52.46"><defs><style>.cls-1{fill:#684394;}</style></defs><title>Fichier 22</title><g id="Calque_2" data-name="Calque 2"><g id="Calque_1-2" data-name="Calque 1"><path class="cls-1" d="M2.93,37.92c.11,0,.2,0,.23.16s0,.29-.11.32-.14.28-.08.58c.09.66-.31,1-.46.36-.06-.23,0-.45.07-.47s.15-.22.12-.42a.57.57,0,0,1,.18-.5l.05,0ZM63.13,10l.13,0c.73-.11.88.31.27.85-.4.38-.52.43-.7.27-.49-.43-.31-.95.3-1.1m-8,1.37h.09c.28.09.34.32.12.52s-.44.09-.37-.26a.25.25,0,0,1,.16-.25m-5.36-.75h0a.63.63,0,0,1,.29.38c0,.18,0,.35-.1.38s-.23-.15-.29-.39,0-.36.06-.36m4.68-2.23a.43.43,0,0,1,.15,0,1.13,1.13,0,0,1,.32,1.4c-.3.64-.58.23-.61-.87,0-.4,0-.57.14-.58M9.7,18.22c.15,0,.22,0,.24.12.16.68-.83,1.39-1.21.89-.24-.33-.08-.55.61-.86a1.54,1.54,0,0,1,.36-.15M73.36,30.78c-.1-.22,3-1.4,2.74-2.09-1-2.35,2.49-3.54,2.06-3.72a1.21,1.21,0,0,1-.61-.9c-.24-1-.5-1.15-1.33-.95s-1.2.11-1.33-.42a15,15,0,0,0-1.27-2.27c-1.12-1.77-1.37-2.54-1.08-3.16s.14-1-.47-1.46c-.36-.26-.7-.4-.78-.35s-3.07-1.61-3.8-2.36a19,19,0,0,0-1.87-1.71l-1.23-1,.25-.53a3.66,3.66,0,0,0,.25-1c0-.44-.11-.5-1.11-.75a21,21,0,0,1-2.15-.63c-.59-.2-1.61-.52-2.28-.7-1.11-.3-1.21-.37-1.28-.89a1.35,1.35,0,0,0-.5-.85c-.46-.3-.68-.26-.93.13s-1.68.4-2.65,0c-.61-.21-.69-.31-.74-.9-.12-1-.91-2-1-1.2s-2.7.81-4,.25c-.52-.24-.58-.53-.2-1.31.27-.58.28-.69,0-.81s-1.16,0-2.73.68c-1.73.72-2.06.7-2.27-.13-.13-.51-.25-.66-.49-.62-.7.11-1,.31-1.18.71s-.57.53-2.68.68-2.56,0-2.16-.69A4.64,4.64,0,0,0,37,.08C37-.16,35.89.19,35.38.6c-.24.2-.43.44-.4.54s-.13.1-.34,0c-.62-.3-1.06-.1-2.1,1a7,7,0,0,1-1.14,1,1.73,1.73,0,0,1-.78-.34,1.16,1.16,0,0,0-1.68.15,1.73,1.73,0,0,1-.69.44,2.41,2.41,0,0,0-.71.39c-.69.69-1.3,0-.84-.91.31-.65.28-.79-.25-1-.17-.08-.3-.12-.38-.08a.14.14,0,0,0-.11.1.31.31,0,0,1-.33.21c-.14,0-.48.31-.75.73A2.68,2.68,0,0,0,24.5,5c0,.19-.21.33-.73.46a2.22,2.22,0,0,0-1,.48c-.16.19-.25.18-.51-.12A.85.85,0,0,0,20.94,6a.91.91,0,0,1-.51.39c-.18,0-.32.17-.3.25s-.25.47-.6.8c-.69.69-2.05,1.26-2.51,1.06-.19-.07-.45.05-.87.44a1.76,1.76,0,0,0-.82,1.74c0,.81-.22,1.16-.5.9s-1.32.38-1.55.82a.87.87,0,0,1-.42.37c-.35.08-.68-1.31-.39-1.68s.15-.75-.32-.66a1.92,1.92,0,0,0-1.58.93c-.33.52-.32.64,0,1.64.45,1.24.33,1.6-.61,1.65a1.09,1.09,0,0,0-1,1.57c.28.8.09,1.16-.87,1.55a4,4,0,0,0-1.45,1.13c-.6.72-.68.89-.48,1.27s.1.57-.74,1.61a5.52,5.52,0,0,0-1.06,1.87,3.64,3.64,0,0,1-.94,1.63c-1.33,1.48-2,2.55-1.79,2.83a.57.57,0,0,0,.54.16c.46-.11.47.06.07,1-.86,1.91-.86,1.75.06,2.36a2.78,2.78,0,0,1,.89.8,7.35,7.35,0,0,1-.86,2c-.75,1.39-1,1.8-1.61,2.09-.94.52-1,1-.39,2.3a14.94,14.94,0,0,1,.91,3.16c.26,1.22.55,2.55.66,3a1.68,1.68,0,0,1,0,1.28c-.42.82.73,5.55,1.2,6.28l1.54-2.22c0-.52,2.82-3.66,2.78-3.88a1.17,1.17,0,0,1,.22-.78,1.69,1.69,0,0,0,.32-1,5.79,5.79,0,0,1,.07-.89,27.2,27.2,0,0,0,.74-3.9,2,2,0,0,1,.08-.8,5.74,5.74,0,0,0,0-1.42,5.53,5.53,0,0,1,0-1.21A6.75,6.75,0,0,0,9,35c-.05-1.25,0-1.51.72-1.68s.77-.74.76-2.34a4,4,0,0,1,.12-1.21,7,7,0,0,0-.24-1.84c-.27-1.22-.29-1.69-.11-2a.93.93,0,0,0,.17-.5,9,9,0,0,1,1.19-2.4c.11-.06.18.06.16.31s0,1.08,0,1.85a12.58,12.58,0,0,1-.12,1.86c-.16.57,0,.68.73.54.51-.1.64-.2.72-.64a5.58,5.58,0,0,1,.57-1.66,1.11,1.11,0,0,0,.09-.58,6.11,6.11,0,0,1,0-1.43,6.66,6.66,0,0,0-.09-1.88c-.16-.61-.15-.83.07-.88s.21-.27.07-.83c-.1-.41-.11-.76,0-.79a3,3,0,0,0,.51-1.13c.19-.6.33-.87.44-.92h0a.14.14,0,0,1,.11,0A3.6,3.6,0,0,1,15,19.33,5.23,5.23,0,0,0,15,20.94a4.06,4.06,0,0,1-.13,1.54,2.26,2.26,0,0,0-.13.92,3.49,3.49,0,0,1-.2,1.24c-.36,1.1-.14,1.34,1,1.22.84-.09,1-.26,1.3-1.26.17-.61.2-.63.59-.44a1.23,1.23,0,0,0,1.11-.07c1.11-.44,1.57-.9,1.66-1.7a3.34,3.34,0,0,1,.73-1.58c.47-.61.62-1,.55-1.3a1.52,1.52,0,0,1,0-.73c.11-.26.21-.25.64,0a2,2,0,0,0,1.13.29c.56-.05.59-.09.89-1.37.22-.88.43-1.34.65-1.39a5.33,5.33,0,0,0,1-.55,2,2,0,0,1,.8-.4,7.75,7.75,0,0,1,.47,1c.38,1,.7,1.48,1,1.41a2.49,2.49,0,0,1,.82.05c.4.08.65.05.74-.1a.88.88,0,0,1,.48-.31,2.18,2.18,0,0,0,.83-.81c.76-1.16.37-1.7-.65-.91-.72.57-1.12.44-1-.34.06-.4.17-.53.69-.66.82-.25,1.34-.56,1.39-.87a1.76,1.76,0,0,1,.53-.64c.44-.36.53-.39,1-.19s.57.4.9,1.3.5,1.16,1.05,1.44.72.33,1.13.07a2,2,0,0,0,.71-.9A1.7,1.7,0,0,1,37,14.3c.06,0,.28.18.47.43.56.7,1.06.76,2.63.32,1-.3,1.46-.49,1.69-.82s.3-.39,1-.06l.84.41a2.81,2.81,0,0,0,1.72,0c.25-.16.41-.13.56.06a2.43,2.43,0,0,0,.71.56c.43.25.67.23,1.7,0a3.21,3.21,0,0,0,2.31-1.66c.13-.24.19-.24.45,0a1.77,1.77,0,0,1,.37.65c.05.18.16.33.25.31s.33.33.53.8a2.08,2.08,0,0,0,.88,1.12,1.36,1.36,0,0,1,.59.53c.07.28.35.22.73-.15s.38-.26.74-.09a.87.87,0,0,0,1.23-.58c.19-.64.81-.6,2.15.17a3.67,3.67,0,0,0,2,.67,3.43,3.43,0,0,1,2.61,1.6c.59,1.26,1.15,1.89,1.76,2.05s.64.1.68-.14c.07-.53.33-.33,1.13.84a3.52,3.52,0,0,0,1.56,1.51,6.5,6.5,0,0,1,3.14,3.23,7.9,7.9,0,0,0,1,1.61,15.71,15.71,0,0,1,1,3.12M51.26,6.92a1.12,1.12,0,0,1,.63,0c.78.21.9.46.49,1s-.59.4-1-.3c-.26-.45-.31-.7-.1-.77m-3.59-1.2a5.67,5.67,0,0,1,.9.17,2.34,2.34,0,0,1,.94.36,3.72,3.72,0,0,1-.63,2c-.08,0-.34-.24-.57-.6-.43-.66-.82-1.88-.64-1.93M11.23,14.3l.06,0c.27,0,.56.56.41.79s-.41.22-.53-.28c-.08-.3,0-.47.06-.49M39.47,6.81h.22c.34,0,.43.13.6.78a2.87,2.87,0,0,0,.57,1.12,2,2,0,0,1,.38.43s0,.43.06.83c.1,1.45-.24,1.33-.89-.31-.23-.64-.6-1.55-.79-2s-.32-.77-.15-.83M30.83,8.09c.05,0,.13.05.19.29a4.3,4.3,0,0,0,.26.71,7.34,7.34,0,0,1,.28,1.33c.11.82.08,1.08-.18,1.19S31,11.62,30.7,9c-.05-.48,0-.84.11-.9Zm-4.71.83c.07,0,.13,0,.23.08a2.24,2.24,0,0,1,.41,1.68,1.87,1.87,0,0,0,0,.87c.18.72-.19,1.54-.69,1.58-.31,0-.38-.12-.57-1a4.2,4.2,0,0,1,.3-2.93c.11-.17.2-.26.27-.28ZM42,4.69c.11,0,.4.14.65.36a1,1,0,0,0,.7.35c.34-.09.47.13,1.37,2.24.4,1,.82,1.89.92,2a.27.27,0,0,1-.11.41,4.3,4.3,0,0,1-.49.3.81.81,0,0,1-1-.53.57.57,0,0,0-.29-.37,1.9,1.9,0,0,1-.44-1,8.2,8.2,0,0,0-.91-2c-.66-1.12-.79-1.72-.38-1.82m-8,1.6c.1-.06.34.19.72.72.7,1,.7,1.62,0,1.55-.25,0-.38-.29-.61-1.22-.17-.64-.2-1-.1-1M36.83,4.9a1.57,1.57,0,0,1,.54-.06c.37,0,.7.11.72.19.06.38-.06.65-.3.71s-.49.67-.37,1.15c.18.71-.29.23-.63-.64s-.37-1.23,0-1.35M26.19,7.33c.06,0,.13,0,.16.14a.5.5,0,0,1-.09.39c-.1.1-.2,0-.24-.1a.44.44,0,0,1,.11-.4s0,0,.06,0m4.67-2.06a.14.14,0,0,1,.17.08c.32.27.39.76.22,1.51l-.16.67-.25-.78c-.23-.72-.19-1.41,0-1.48"/></g></g></svg>