<svg xmlns="http://www.w3.org/2000/svg" viewBox="0 0 42.64 30.33"><defs><style>.cls-1{fill:#684394;}</style></defs><title>Fichier 27</title><g id="Calque_2" data-name="Calque 2"><g id="Calque_1-2" data-name="Calque 1"><path class="cls-1" d="M.68,4.57a.7.7,0,0,0,0-1.4.7.7,0,0,0,0,1.4"/><path class="cls-1" d="M8.2,6.9a.7.7,0,0,0,0-1.4.7.7,0,0,0,0,1.4"/><path class="cls-1" d="M1.75,11.2a.7.7,0,0,0,0-1.4.7.7,0,0,0,0,1.4"/><path class="cls-1" d="M5.69,18.18a.7.7,0,0,0,0-1.4.7.7,0,0,0,0,1.4"/><path class="cls-1" d="M9.81,13.88a.7.7,0,0,0,0-1.4.7.7,0,0,0,0,1.4"/><path class="cls-1" d="M14.11,25.88a.7.7,0,0,0,0-1.4.7.7,0,0,0,0,1.4"/><path class="cls-1" d="M14.47,15.14a.7.7,0,0,0,0-1.4.7.7,0,0,0,0,1.4"/><path class="cls-1" d="M16.08,10.66a.7.7,0,0,0,0-1.4.7.7,0,0,0,0,1.4"/><path class="cls-1" d="M21.63,7.08a.7.7,0,0,0,0-1.4.7.7,0,0,0,0,1.4"/><path class="cls-1" d="M30.05,6.54a.7.7,0,0,0,0-1.4.7.7,0,0,0,0,1.4"/><path class="cls-1" d="M41.94,6.54a.7.7,0,0,0,0-1.4.7.7,0,0,0,0,1.4"/><path class="cls-1" d="M30.94,11.91a.7.7,0,0,0,0-1.4.7.7,0,0,0,0,1.4"/><path class="cls-1" d="M30,21.22a.7.7,0,0,0,0-1.4.7.7,0,0,0,0,1.4"/><path class="cls-1" d="M34.44,25.92a.7.7,0,0,0,0-1.4.7.7,0,0,0,0,1.4"/><path class="cls-1" d="M36.42,21.33a.7.7,0,0,0,0-1.4.7.7,0,0,0,0,1.4"/><path class="cls-1" d="M24.24,24a.7.7,0,0,0,0-1.4.7.7,0,0,0,0,1.4"/><path class="cls-1" d="M10,21.4A.7.7,0,0,0,10,20a.7.7,0,0,0,0,1.4"/><path class="cls-1" d="M9.81,25.88a.7.7,0,0,0,0-1.4.7.7,0,0,0,0,1.4"/><path class="cls-1" d="M15.72,20.15a.7.7,0,0,0,0-1.4.7.7,0,0,0,0,1.4"/><path class="cls-1" d="M20.11,21.4a.7.7,0,0,0,0-1.4.7.7,0,0,0,0,1.4"/><path class="cls-1" d="M22.56,30.33a.7.7,0,0,0,0-1.4.7.7,0,0,0,0,1.4"/><path class="cls-1" d="M30.45,16.18l.18.18a.71.71,0,0,0,1,0,.73.73,0,0,0,0-1l-.18-.18a.72.72,0,0,0-1,0,.71.71,0,0,0,0,1"/><path class="cls-1" d="M30.05,26.16a.7.7,0,0,0,0-1.4.7.7,0,0,0,0,1.4"/><path class="cls-1" d="M17.33,28.75a.7.7,0,0,0,0-1.4.7.7,0,0,0,0,1.4"/><path class="cls-1" d="M28,30.26a.7.7,0,0,0,0-1.4.7.7,0,0,0,0,1.4"/><path class="cls-1" d="M37.21,17.28a.7.7,0,0,0,0-1.4.7.7,0,0,0,0,1.4"/><path class="cls-1" d="M38.46,10.84a.7.7,0,0,0,0-1.4.7.7,0,0,0,0,1.4"/><path class="cls-1" d="M36.85,4.39a.7.7,0,0,0,0-1.4.7.7,0,0,0,0,1.4"/><path class="cls-1" d="M42.64,1.14V.7a.7.7,0,0,0-.7-.7.72.72,0,0,0-.7.7v.44a.7.7,0,0,0,.7.7.72.72,0,0,0,.7-.7"/></g></g></svg>