<svg xmlns="http://www.w3.org/2000/svg" viewBox="0 0 54.65 11.48"><defs><style>.cls-1{fill:#684394;}</style></defs><title>Fichier 7</title><g id="Calque_2" data-name="Calque 2"><g id="Calque_1-2" data-name="Calque 1"><path class="cls-1" d="M.81,2.34A.84.84,0,0,0,.81.67a.84.84,0,0,0,0,1.67"/><path class="cls-1" d="M7.72,2.79a.84.84,0,0,0,0-1.68.84.84,0,0,0,0,1.68"/><path class="cls-1" d="M3.7,6.13a.84.84,0,0,0,0-1.67.84.84,0,0,0,0,1.67"/><path class="cls-1" d="M8.61,10.14a.84.84,0,0,0,0-1.67.84.84,0,0,0,0,1.67"/><path class="cls-1" d="M3,11.48A.84.84,0,0,0,3,9.81a.84.84,0,0,0,0,1.67"/><path class="cls-1" d="M45.16,1.67a.84.84,0,0,0,0-1.67.84.84,0,0,0,0,1.67"/><path class="cls-1" d="M51.62,1.67a.84.84,0,0,0,0-1.67.84.84,0,0,0,0,1.67"/><path class="cls-1" d="M47.61,5.24a.84.84,0,0,0,0-1.67.84.84,0,0,0,0,1.67"/><path class="cls-1" d="M53.85,7.47a.84.84,0,0,0,0-1.68.84.84,0,0,0,0,1.68"/><path class="cls-1" d="M47.61,10.81a.84.84,0,0,0,0-1.67.84.84,0,0,0,0,1.67"/><path class="cls-1" d="M42.93,9.25a.84.84,0,0,0,0-1.67.84.84,0,0,0,0,1.67"/></g></g></svg>