<svg xmlns="http://www.w3.org/2000/svg" viewBox="0 0 36.57 26.84"><defs><style>.cls-1{fill:#684394;}</style></defs><title>Fichier 29</title><g id="Calque_2" data-name="Calque 2"><g id="Calque_1-2" data-name="Calque 1"><path class="cls-1" d="M14,.58A68.34,68.34,0,0,1,1.13,1.78a1.17,1.17,0,0,0,0,2.34A72.38,72.38,0,0,0,14.59,2.84C16.07,2.56,15.44.3,14,.58"/><path class="cls-1" d="M20.65,2.29A98.71,98.71,0,0,0,35.44,4.52c1.5.11,1.5-2.23,0-2.34A95.3,95.3,0,0,1,21.28,0C19.81-.3,19.19,2,20.65,2.29"/><path class="cls-1" d="M17,18.39v7.45a1,1,0,0,0,2.05,0V18.39a1,1,0,0,0-2.05,0"/></g></g></svg>