<svg xmlns="http://www.w3.org/2000/svg" viewBox="0 0 73.91 24.6"><defs><style>.cls-1{fill:#ec643f;}</style></defs><title>Fichier 21</title><g id="Calque_2" data-name="Calque 2"><g id="Calque_1-2" data-name="Calque 1"><path class="cls-1" d="M31,5.48C35.17,3,39.89-.1,45.57,5.06c.88.8,2.2-.51,1.31-1.31C40.6-1.95,35.32.92,30.07,3.88c-1,.59-.07,2.24.94,1.6"/><path class="cls-1" d="M29.75,5.52c3.57,5.39-.28,12.37-5.39,15.08a17.16,17.16,0,0,1-8.09,2c-4.09,0-5.65-3.29-5.91-6.94a22.94,22.94,0,0,1,.93-8.44c1-3.1,3.47-4.61,6.58-5.09,4-.63,9.51-.43,11.88,3.41.62,1,2.23.09,1.6-.93C29.17,1.05,24.61-.15,20.68,0,15.1.25,10.5,2.11,9.16,8c-1.05,4.63-1.75,12.35,2.92,15.39,4.35,2.83,11.76.22,15.46-2.65,4.69-3.62,7.31-10.86,3.81-16.14-.66-1-2.26-.06-1.6.93"/><path class="cls-1" d="M44.77,4.59c-3.1,4.68-1.36,11.08,2.37,14.87,3.54,3.61,10.09,6,15.11,4.71,5.86-1.54,5.7-9.39,5.07-14.09-.33-2.45-.94-5-2.65-6.88a10.59,10.59,0,0,0-6.85-3c-4.62-.54-10.36,0-13,4.4-.62,1,1,2,1.6.93,2.37-3.83,7.91-4,11.88-3.41,3.11.49,5.56,2,6.58,5.09a22.73,22.73,0,0,1,.93,8.44c-.25,3.69-1.83,6.86-5.91,6.94a16.86,16.86,0,0,1-8.08-2c-5.11-2.71-9-9.69-5.4-15.08.66-1-.94-1.92-1.6-.93"/><path class="cls-1" d="M9.34,4.67A31.67,31.67,0,0,1,1.11,2.54C0,2.09-.48,3.89.62,4.33a34,34,0,0,0,8.72,2.2c1.18.14,1.17-1.72,0-1.86"/><path class="cls-1" d="M66.94,8l6.51-3.51c1-.57.11-2.17-.94-1.6L66,6.35c-1.05.56-.12,2.16.93,1.6"/></g></g></svg>