<svg xmlns="http://www.w3.org/2000/svg" viewBox="0 0 56.8 22.02"><defs><style>.cls-1{fill:#ec643f;}</style></defs><title>Fichier 12</title><g id="Calque_2" data-name="Calque 2"><g id="Calque_1-2" data-name="Calque 1"><path class="cls-1" d="M19.22,5c3.21,4.9-.32,11.25-5,13.63a15.53,15.53,0,0,1-7.07,1.68c-3.81,0-5.15-3.19-5.33-6.59a20.21,20.21,0,0,1,.86-7.21A6.69,6.69,0,0,1,8.3,2c3.62-.64,8.74-.47,10.92,3,.56.91,2,.07,1.43-.84C17.87-.28,11.17-.66,6.6.68.31,2.51-.8,10.72.45,16.28c.64,2.85,2.35,5.2,5.37,5.63a16.18,16.18,0,0,0,8.91-1.67C20.36,17.5,24.45,10,20.65,4.18c-.58-.89-2-.06-1.43.84"/><path class="cls-1" d="M21.31,6c5.53-3.47,9.47-3.19,14.21,1.08.74.66,1.83-.42,1.09-1.08-5.24-4.73-10-5.16-16.08-1.33-.84.53-1.07,1.86-.22,1.33"/><path class="cls-1" d="M36.15,4.18c-3.79,5.78.29,13.32,5.92,16.06A16.3,16.3,0,0,0,51,21.91c3-.43,4.72-2.78,5.36-5.63,1.25-5.56.14-13.77-6.15-15.6-4.57-1.34-11.27-1-14.05,3.5-.57.91.87,1.75,1.44.84,2.1-3.38,6.85-3.58,10.38-3.1,2.73.38,5.08,1.57,6.08,4.3a19.76,19.76,0,0,1,1,7.52c-.17,3.2-1.37,6.43-5,6.58a15.21,15.21,0,0,1-7.1-1.52C38.08,16.46,34.27,10.07,37.59,5c.59-.9-.85-1.73-1.44-.84"/></g></g></svg>