<svg xmlns="http://www.w3.org/2000/svg" viewBox="0 0 67.77 51.32"><defs><style>.cls-1{fill:#ec643f;}</style></defs><title>Fichier 20</title><g id="Calque_2" data-name="Calque 2"><g id="Calque_1-2" data-name="Calque 1"><path class="cls-1" d="M62,27.48c3.62-1,3.58,9.71,3.68,11.86.09,2,.1,4,0,6a14.18,14.18,0,0,1-.16,3c-.3,1.09-.81.94-1.9.82C62,49,62.35,49,62.2,47.85a33.63,33.63,0,0,1-.07-3.48q0-3-.11-6.09L61.79,26.1a1,1,0,0,0-2,0q.18,9.78.37,19.58c0,1.65-.55,4.23,1.31,5.06,1.28.58,4.13,1,5.27-.06,1.4-1.25.92-4.55.95-6.19a78,78,0,0,0-.36-9.42c-.33-3.26-.65-11-5.89-9.5A1,1,0,0,0,62,27.48"/><path class="cls-1" d="M61.72,26.53a2.63,2.63,0,0,1,3,1,7.33,7.33,0,0,1,1.08,3.24,77.7,77.7,0,0,1,.7,18A1.61,1.61,0,0,1,66.06,50a1.54,1.54,0,0,1-.9.23,11.63,11.63,0,0,1-3-.3,1.27,1.27,0,0,1-.74-.36,1.39,1.39,0,0,1-.2-.83L60.8,26.1"/><path class="cls-1" d="M6.42,25a2.64,2.64,0,0,0-3,1,7.28,7.28,0,0,0-1.14,3.23,77.11,77.11,0,0,0-1,17.95,1.61,1.61,0,0,0,.42,1.21,1.47,1.47,0,0,0,.9.24,11.6,11.6,0,0,0,3-.25A1.27,1.27,0,0,0,6.3,48a1.35,1.35,0,0,0,.21-.82l.84-22.61"/><path class="cls-1" d="M6.68,24c-5.07-1.5-5.59,5.82-6,9A78.88,78.88,0,0,0,.1,42.87c0,1.63-.54,4.94.85,6.2,1.13,1,4,.69,5.28.13C8,48.44,7.54,46.14,7.6,44.58q.38-10,.74-20c.05-1.28-1.94-1.28-2,0L5.91,36.75q-.12,3-.23,6.09c0,1-.08,2-.11,3-.06,1.44.14,1.56-1.51,1.71-.83.08-1.35.23-1.84-.43s-.12-2.75-.13-3.43q0-3,.15-6c.13-2,.3-12.86,3.92-11.79A1,1,0,0,0,6.68,24"/><path class="cls-1" d="M6.15,24.72C6.7,21.36,7.21,18,7.79,14.64c.28-1.66.58-3.32.92-5,.43-2.06.67-3.64,3-4.08a214.16,214.16,0,0,1,24.07-3q5.77-.4,11.57-.52a32.51,32.51,0,0,1,6,0,2.44,2.44,0,0,1,2.21,1.7c.36.74.7,1.48,1,2.23a107.9,107.9,0,0,1,6.19,20.6c.27,1.26,2.2.72,1.94-.54A117.54,117.54,0,0,0,59.41,7.53c-.47-1.2-1-2.39-1.5-3.56S57,1.32,56,.55A4.09,4.09,0,0,0,53.38,0c-1.86,0-3.72,0-5.57,0Q36.86.22,26,1.47q-5.05.59-10.08,1.38c-2.26.36-6.2.22-7.76,2.19-1.69,2.13-1.76,6.1-2.22,8.7-.6,3.48-1.13,7-1.69,10.45C4,25.45,6,26,6.15,24.72"/></g></g></svg>