<svg xmlns="http://www.w3.org/2000/svg" viewBox="0 0 34.59 39.43"><defs><style>.cls-1{fill:#684394;}</style></defs><title>Fichier 8</title><g id="Calque_2" data-name="Calque 2"><g id="Calque_1-2" data-name="Calque 1"><path class="cls-1" d="M12.58,36.92a3.35,3.35,0,0,0,4.23,2.36,3.87,3.87,0,0,0,2.33-4.62c-.3-1.32-2.32-.76-2,.56a1.77,1.77,0,0,1-.88,2,1.24,1.24,0,0,1-1.63-.9c-.28-1.32-2.31-.76-2,.56"/><path class="cls-1" d="M33.92.75c-1,.1-2.3.47-2.28,1.74a1.25,1.25,0,0,0,2,1A1.92,1.92,0,0,0,34,.72a1.45,1.45,0,0,0-2.35.53c-.2.51.39,1,.86.86A1.4,1.4,0,0,0,33.57.67c-.06-.89-1.46-.9-1.4,0,0,.11,0,.07,0,.09l.86.86c-.19.49-.11,0,0,.1s.15.07.08,0c.09.09,0,.27,0,.37s-.21.28-.2.31.22.1.21.11,0-.09,0-.1a1.56,1.56,0,0,1,.87-.26c.89-.08.9-1.48,0-1.4"/><path class="cls-1" d="M2.31,2c-1,.1-2.3.47-2.28,1.74a1.25,1.25,0,0,0,2.05,1A1.92,1.92,0,0,0,2.39,2,1.45,1.45,0,0,0,0,2.48c-.2.51.39,1,.86.86A1.4,1.4,0,0,0,2,1.9C1.9,1,.5,1,.56,1.9.57,2,.59,2,.53,2l.86.86c-.19.49-.11,0,0,.1s.15.07.08,0c.09.09.05.27,0,.37s-.21.28-.2.31.22.1.21.11,0-.09,0-.1a1.56,1.56,0,0,1,.87-.26c.89-.08.9-1.48,0-1.4"/><path class="cls-1" d="M17.88,7.73a33.17,33.17,0,0,0,2,9.39c.38,1,2.06,3.39,1.71,4.3-1.18,3.06-5.31-2.6-5.64-3.13-.63-1-2.22-.07-1.58.93,1.42,2.24,6.3,7.71,8.7,3.38,1-1.77-.25-3.26-1-4.85a30.12,30.12,0,0,1-2.36-10c-.08-1.17-1.92-1.18-1.83,0"/></g></g></svg>