<svg xmlns="http://www.w3.org/2000/svg" viewBox="0 0 57.59 48.77"><defs><style>.cls-1{fill:#684394;}</style></defs><title>Fichier 11</title><g id="Calque_2" data-name="Calque 2"><g id="Calque_1-2" data-name="Calque 1"><path class="cls-1" d="M27.48,23.88A25.53,25.53,0,0,0,32.85,33c.09-.66.17-1.31.26-2A21.34,21.34,0,0,1,26,33c-1.59.16-1.6,2.67,0,2.51a25,25,0,0,0,8.39-2.32,1.26,1.26,0,0,0,.26-2,22.41,22.41,0,0,1-4.73-8c-.52-1.52-2.94-.87-2.42.67"/><path class="cls-1" d="M46.71,13.29c-1.22.1-2.79.52-2.84,2A1.82,1.82,0,0,0,46.64,17a2.25,2.25,0,0,0,.55-3.5,2.07,2.07,0,0,0-3.16.43,1.26,1.26,0,0,0,1.41,1.84,1.85,1.85,0,0,0,1.47-1.86,1.29,1.29,0,0,0-1.25-1.25,1.27,1.27,0,0,0-1.26,1.25c0,.28.08.14.21-.43.32-.14.38-.18.17-.12l1.41,1.84c.11-.23-.23.19-.25.21-.37.27,0-.12-.15,0-.09,0-.1,0,0,0s.06,0,0,0,.11.08-.06,0a.66.66,0,0,1-.34-.61c0-.09.07-.06,0,0l0-.05-.06.06c.28.05.46-.15.75,0a.58.58,0,0,1,.28.3.66.66,0,0,1-.25.77c.07-.06.13-.07,0,0l.23-.07.2,0c-.13,0,.21,0,.2,0A1.29,1.29,0,0,0,48,14.54a1.26,1.26,0,0,0-1.25-1.25"/><path class="cls-1" d="M8.9,14.13a3.09,3.09,0,0,0-2.6,1.19,1.88,1.88,0,0,0,1,2.7,2.24,2.24,0,0,0,2.59-1.71,2.14,2.14,0,0,0-.24-1.64A2.1,2.1,0,0,0,9,14l-.17-.09-.23-.09a.72.72,0,0,1,.47.57,1.29,1.29,0,0,0-1.55-.88A1.26,1.26,0,0,0,6.64,15a1.94,1.94,0,0,0,.41.71,2.58,2.58,0,0,0,.72.41c-.33-.19,0,.08-.08,0a.55.55,0,0,1-.18-.37c0-.08,0-.11,0-.18l-.06.11c.06-.07.06-.07,0,0l0,0a.27.27,0,0,1,.3,0,.67.67,0,0,1,.71.3c.18.31,0,.56-.19.82-.07.1.13-.06,0,0s.16,0,.19,0l.24,0c-.24,0,.15,0,.16,0a1.29,1.29,0,0,0,1.25-1.26A1.26,1.26,0,0,0,8.9,14.13"/><path class="cls-1" d="M17.07,44c.62,1.66,2.57,2.5,4.09,3.13a21.56,21.56,0,0,0,9.52,1.64c2-.12,12.48-1.52,10.33-5.63-.75-1.43-2.91-.17-2.17,1.26.06-.6-.08-.7-.42-.28a7.9,7.9,0,0,1-.8.46,14,14,0,0,1-2.51.92,20.43,20.43,0,0,1-6.41.78,19.26,19.26,0,0,1-6-1.22c-.65-.24-2.93-1-3.21-1.73-.57-1.49-3-.85-2.42.67"/><path class="cls-1" d="M2.36,11.45,15.24,5.59c1.81-.83.24-3.49-1.56-2.67L.8,8.78C-1,9.61.56,12.27,2.36,11.45"/><path class="cls-1" d="M40.3,3a52.94,52.94,0,0,1,15,6.81C57,11,58.54,8.27,56.88,7.18A55.62,55.62,0,0,0,41.12.06a1.55,1.55,0,0,0-.82,3"/></g></g></svg>