<svg xmlns="http://www.w3.org/2000/svg" viewBox="0 0 36.03 41.79"><defs><style>.cls-1{fill:#684394;}</style></defs><title>Fichier 10</title><g id="Calque_2" data-name="Calque 2"><g id="Calque_1-2" data-name="Calque 1"><path class="cls-1" d="M19.27,35.58c1-.48,1.84-1.89,3.47-1.16s-1.26,7.81-4,7.35C17.09,41.5,14.19,36.27,16,34c.65-.83,3.29.55,3.32,1.57"/><path class="cls-1" d="M1,2A8.49,8.49,0,0,0,12.93,3.15c1.15-.92-.48-2.54-1.62-1.62A6.2,6.2,0,0,1,2.66.39C1.74-.76.13.87,1,2"/><path class="cls-1" d="M2.07,2.89.18,5.9c-.78,1.26,1.2,2.41,2,1.16l1.89-3c.78-1.25-1.2-2.41-2-1.16"/><path class="cls-1" d="M5.83,4.39V8.15a1.15,1.15,0,0,0,2.29,0V4.39a1.15,1.15,0,0,0-2.29,0"/><path class="cls-1" d="M10.84,4.06c.21.81.42,1.63.62,2.44a1.15,1.15,0,0,0,2.21-.61c-.2-.81-.41-1.62-.62-2.44a1.15,1.15,0,0,0-2.21.61"/><path class="cls-1" d="M32.85.39A6.2,6.2,0,0,1,24.2,1.53c-1.14-.92-2.77.69-1.62,1.62A8.49,8.49,0,0,0,34.47,2c.91-1.15-.7-2.78-1.62-1.63"/><path class="cls-1" d="M32,4.05l1.89,3c.78,1.25,2.76.1,2-1.16L34,2.89c-.78-1.24-2.76-.09-2,1.16"/><path class="cls-1" d="M27.91,4.39V8.15a1.15,1.15,0,0,0,2.29,0V4.39a1.15,1.15,0,0,0-2.29,0"/><path class="cls-1" d="M23,3.45c-.21.81-.42,1.63-.62,2.44a1.15,1.15,0,0,0,2.21.61c.2-.81.41-1.63.62-2.44A1.15,1.15,0,0,0,23,3.45"/><path class="cls-1" d="M19.9,16.15a23.43,23.43,0,0,0,4.92,8.36c.07-.6.15-1.2.23-1.8a19.73,19.73,0,0,1-6.52,1.8c-1.45.15-1.47,2.44,0,2.3a23.3,23.3,0,0,0,7.68-2.12,1.16,1.16,0,0,0,.23-1.8,20.72,20.72,0,0,1-4.33-7.35c-.47-1.39-2.69-.8-2.21.61"/></g></g></svg>