<svg xmlns="http://www.w3.org/2000/svg" viewBox="0 0 40.81 38.42"><defs><style>.cls-1{fill:#684394;}</style></defs><title>Fichier 4</title><g id="Calque_2" data-name="Calque 2"><g id="Calque_1-2" data-name="Calque 1"><path class="cls-1" d="M22.75,9a39.51,39.51,0,0,0,2.09,10.43c.33.91,1.64,2.83,1.63,3.75,0,4.15-2.67,1.67-3.54.83a15.15,15.15,0,0,1-2.18-2.8c-.85-1.32-3-.1-2.11,1.23,1.75,2.74,7.17,8.89,10.25,4.17,1.28-2,.15-3.66-.72-5.48A34.38,34.38,0,0,1,25.19,9c-.11-1.56-2.56-1.57-2.44,0"/><path class="cls-1" d="M39.59.66c-1.2.1-2.72.5-2.77,2a1.77,1.77,0,0,0,2.69,1.6A2.2,2.2,0,0,0,40.06.82,2,2,0,0,0,37,1.24a1.25,1.25,0,0,0,.09,1.36A1.27,1.27,0,0,0,38.36,3a1.81,1.81,0,0,0,1.42-1.82A1.26,1.26,0,0,0,38.56,0a1.23,1.23,0,0,0-1.22,1.22c0,.28.08.14.21-.41.31-.14.36-.18.16-.13l1.37,1.8c.1-.23-.23.19-.24.2-.36.27,0-.11-.15,0s-.1,0,0,0,.06,0,0,0,.11.07-.05,0a.6.6,0,0,1-.33-.59c0-.09.07-.06,0,0l0,0c-.09.09-.12.11-.06.06.28,0,.45-.15.73,0a.56.56,0,0,1,.28.29.65.65,0,0,1-.25.75c.07-.06.13-.07,0,0l.23-.07s.32,0,.19,0,.2,0,.2,0a1.26,1.26,0,0,0,1.22-1.22A1.22,1.22,0,0,0,39.59.66"/><path class="cls-1" d="M2.77,1.48A3,3,0,0,0,.24,2.64a1.82,1.82,0,0,0,1,2.62A2.19,2.19,0,0,0,3.78,3.6,2.08,2.08,0,0,0,3.55,2a2.29,2.29,0,0,0-.69-.66l-.17-.09-.22-.09a.72.72,0,0,1,.45.56A1.26,1.26,0,0,0,1.42.86a1.24,1.24,0,0,0-.86,1.5A1.79,1.79,0,0,0,1,3.05c.23.24.43.25.7.4-.33-.18,0,.08-.08,0a.57.57,0,0,1-.18-.37c0-.07,0-.11.06-.17L1.41,3c.05-.07.05-.07,0,0l0,0a.25.25,0,0,1,.3,0,.64.64,0,0,1,.68.29c.18.3,0,.54-.17.8-.08.1.12-.06,0,0s.15,0,.18,0l.23,0c-.23,0,.15,0,.16,0A1.26,1.26,0,0,0,4,2.7,1.22,1.22,0,0,0,2.77,1.48"/><path class="cls-1" d="M14.25,35c2,5.28,19.84,4.25,17.94-2.09a1.22,1.22,0,0,0-2.35.65c.54,1.82-6.29,2.2-7.17,2.18s-5.56-.05-6.07-1.38-2.91-.83-2.35.64"/></g></g></svg>