<svg xmlns="http://www.w3.org/2000/svg" viewBox="0 0 35.2 40.72"><defs><style>.cls-1{fill:#684394;}</style></defs><title>Fichier 13</title><g id="Calque_2" data-name="Calque 2"><g id="Calque_1-2" data-name="Calque 1"><path class="cls-1" d="M14.93,23.62c3.7,1.37,8.75,2.24,12.61,1.06,2.33-.71,2.46-2.9,1.94-5a26.07,26.07,0,0,0-4.27-8.4c-1-1.46-2.52-3.91-4.49-4.17C19.53,7,19.54,8.85,20.72,9c.89.12,2.63,2.87,3.23,3.75a27.81,27.81,0,0,1,3.4,6.39C28,21,28.46,22.69,26.1,23.09a21.73,21.73,0,0,1-10.67-1.28c-1.13-.42-1.62,1.39-.5,1.81"/><path class="cls-1" d="M17.36,37.65a3.4,3.4,0,0,0,3.9,3,3.87,3.87,0,0,0,3-4.29C24.1,35,22,35,22.12,36.38a1.92,1.92,0,0,1-1,2.12,1.27,1.27,0,0,1-1.67-.85c-.15-1.35-2.29-1.37-2.13,0"/><path class="cls-1" d="M34.52.77c-1.05.1-2.34.47-2.32,1.76a1.27,1.27,0,0,0,2.09,1A2,2,0,0,0,34.6.73a1.48,1.48,0,0,0-2.39.54c-.21.52.4,1,.88.87A1.4,1.4,0,0,0,34.16.68c-.06-.9-1.49-.91-1.42,0,0,.11,0,.07,0,.09l.87.88c-.19.49-.11.05,0,.1s.16.07.09,0c.09.09,0,.27,0,.38s-.22.28-.21.31.22.11.21.11,0-.08,0-.1a1.57,1.57,0,0,1,.88-.26c.9-.09.91-1.51,0-1.42"/><path class="cls-1" d="M2.35,2C1.31,2.12,0,2.5,0,3.78a1.27,1.27,0,0,0,2.09,1A2,2,0,0,0,2.43,2,1.48,1.48,0,0,0,0,2.52c-.21.52.4,1,.88.88A1.41,1.41,0,0,0,2,1.94C1.93,1,.5,1,.57,1.94.58,2,.6,2,.54,2l.88.88c-.2.5-.11.05-.06.1s.16.07.09,0c.09.1,0,.27,0,.38s-.22.28-.21.32.22.1.21.1,0-.08,0-.1a1.59,1.59,0,0,1,.88-.26c.91-.08.91-1.51,0-1.42"/></g></g></svg>