<svg xmlns="http://www.w3.org/2000/svg" viewBox="0 0 43.09 46.72"><defs><style>.cls-1{fill:#684394;}</style></defs><title>Fichier 18</title><g id="Calque_2" data-name="Calque 2"><g id="Calque_1-2" data-name="Calque 1"><path class="cls-1" d="M37.16,5.5c-1,.1-2.3.46-2.28,1.73a1.25,1.25,0,0,0,2,1,1.91,1.91,0,0,0,.31-2.79A1.45,1.45,0,0,0,34.89,6c-.2.51.39,1,.86.86a1.39,1.39,0,0,0,1.06-1.44c-.06-.89-1.46-.9-1.4,0,0,.11,0,.07,0,.09l.86.86c-.19.49-.1,0-.05.1s.15.07.08,0c.09.09,0,.27,0,.37s-.21.28-.2.31.22.11.21.11,0-.08,0-.1a1.55,1.55,0,0,1,.87-.25c.89-.09.9-1.49,0-1.4"/><path class="cls-1" d="M9.79,6.73c-1,.1-2.3.47-2.28,1.73a1.25,1.25,0,0,0,2.05,1,1.91,1.91,0,0,0,.31-2.79,1.46,1.46,0,0,0-2.35.53c-.2.52.39,1,.86.86A1.38,1.38,0,0,0,9.44,6.65c-.06-.9-1.46-.9-1.4,0,0,.1,0,.07,0,.08l.86.86c-.19.49-.1,0,0,.1s.15.07.09,0a.4.4,0,0,1,0,.37c0,.07-.21.28-.2.32s.22.1.21.1,0-.08,0-.1a1.64,1.64,0,0,1,.87-.25c.89-.09.9-1.49,0-1.4"/><path class="cls-1" d="M26.06,43.73c-1,.09-2.26.45-2.24,1.69a1.22,1.22,0,0,0,2,1,1.88,1.88,0,0,0,.3-2.73,1.43,1.43,0,0,0-2.3.52c-.2.5.38,1,.85.84a1.36,1.36,0,0,0,1-1.4c-.06-.88-1.43-.89-1.37,0,0,.1,0,.06,0,.08l.84.84c-.18.48-.1,0,0,.1s.15.07.09,0c.08.09,0,.26,0,.36s-.2.27-.2.31.22.1.21.1,0-.08,0-.1a1.51,1.51,0,0,1,.86-.24c.87-.09.87-1.46,0-1.37"/><path class="cls-1" d="M23.12,14.52a34.09,34.09,0,0,1,3.08,6.05c.46,1.14,2.23,4.59,1.43,5.78-1.07,1.58-6.33.33-7.1-1.19-.6-1.18-2.38-.14-1.78,1,1.39,2.74,7.6,3.82,9.93,2,1.75-1.38,1-3.71.46-5.51a36.72,36.72,0,0,0-4.25-9.19c-.72-1.1-2.5-.07-1.77,1"/><path class="cls-1" d="M1,5.71a90.53,90.53,0,0,0,14.48-2c1.29-.29.74-2.27-.55-2A87.06,87.06,0,0,1,1,3.65C-.33,3.72-.33,5.78,1,5.71"/><path class="cls-1" d="M29.58,2A88,88,0,0,0,41.8,4.75c1.3.19,1.85-1.79.55-2A88,88,0,0,1,30.13.05a1,1,0,0,0-.55,2"/></g></g></svg>