<svg xmlns="http://www.w3.org/2000/svg" viewBox="0 0 28.78 48.76"><defs><style>.cls-1{fill:#684394;}</style></defs><title>Fichier 9</title><g id="Calque_2" data-name="Calque 2"><g id="Calque_1-2" data-name="Calque 1"><path class="cls-1" d="M16.22,42.61c1.71-.71,2.92-2.29,6.37-2s.38,7.89-5.18,8.11c-3.3.13-10.88-4.27-8.25-6.89.95-.95,6.63-.25,7.06.74"/><path class="cls-1" d="M18.26,20.84c.54,1.56,1.92,3.51,1.87,5.16a3.36,3.36,0,0,1-3.23,3.2c-1.46.13-1.48,2.43,0,2.29A5.77,5.77,0,0,0,22,28c1.19-2.86-.62-5.16-1.53-7.8-.47-1.39-2.69-.8-2.21.61"/><path class="cls-1" d="M1.1,9.66c0,.27-.06.55-.08.83a1.13,1.13,0,0,0,.7,1A1.18,1.18,0,0,0,3,11.3l.82-.81A1.15,1.15,0,0,0,2.17,8.87l-.82.81,2,.81c0-.28,0-.56.08-.83A1.15,1.15,0,0,0,2.25,8.51,1.18,1.18,0,0,0,1.1,9.66"/><path class="cls-1" d="M25.74,9.86l-.09.83a1.14,1.14,0,0,0,.71,1,1.16,1.16,0,0,0,1.25-.23l.82-.81a1.15,1.15,0,0,0-1.62-1.62L26,9.88l2,.81c0-.28.05-.56.08-.83a1.16,1.16,0,0,0-1.15-1.15,1.17,1.17,0,0,0-1.14,1.15"/><path class="cls-1" d="M.74,2.55H3.18A.77.77,0,0,0,3.18,1H.74a.77.77,0,0,0,0,1.53"/><path class="cls-1" d="M25.19,1.53H28A.77.77,0,0,0,28,0H25.19a.77.77,0,0,0,0,1.53"/></g></g></svg>