<svg xmlns="http://www.w3.org/2000/svg" viewBox="0 0 42.86 42.98"><defs><style>.cls-1{fill:#684394;}</style></defs><title>Fichier 5</title><g id="Calque_2" data-name="Calque 2"><g id="Calque_1-2" data-name="Calque 1"><path class="cls-1" d="M22.51,17a30.91,30.91,0,0,0,6.56,11.15c.08-.64.16-1.27.25-1.91a26.76,26.76,0,0,1-9,2.48c-1.55.15-1.56,2.6,0,2.44a30.27,30.27,0,0,0,10.21-2.81,1.24,1.24,0,0,0,.25-1.92,28.05,28.05,0,0,1-5.94-10.08c-.5-1.48-2.86-.85-2.35.65"/><path class="cls-1" d="M40,5.36c-1.2.1-2.72.51-2.77,2A1.78,1.78,0,0,0,40,8.94a2.2,2.2,0,0,0,.54-3.41A2,2,0,0,0,37.43,6a1.25,1.25,0,0,0,.09,1.36,1.26,1.26,0,0,0,1.29.43,1.79,1.79,0,0,0,1.42-1.81A1.24,1.24,0,0,0,39,4.71a1.23,1.23,0,0,0-1.22,1.22c0,.27.08.14.21-.42.31-.14.36-.18.16-.12l1.38,1.79c.09-.22-.23.2-.25.21-.36.27,0-.11-.14,0s-.11,0,0,0,.06,0,0,0,.11.07,0,0a.61.61,0,0,1-.33-.59c0-.1.07-.06,0,0a.1.1,0,0,0,0,0l-.06.06c.28,0,.45-.15.73,0a.53.53,0,0,1,.28.29.65.65,0,0,1-.25.75c.07-.06.13-.07,0,0l.23-.07.19,0c-.13,0,.21,0,.2,0a1.27,1.27,0,0,0,1.22-1.23A1.24,1.24,0,0,0,40,5.36"/><path class="cls-1" d="M3.9,6.18A3,3,0,0,0,1.37,7.34,1.84,1.84,0,0,0,2.4,10,2.19,2.19,0,0,0,4.92,8.31a2.08,2.08,0,0,0-.24-1.6A2.11,2.11,0,0,0,4,6L3.82,6,3.6,5.87a.69.69,0,0,1,.46.55,1.27,1.27,0,0,0-1.51-.85,1.23,1.23,0,0,0-.85,1.5,1.77,1.77,0,0,0,.4.69c.24.24.43.24.7.4-.32-.19,0,.08-.08,0a.6.6,0,0,1-.17-.37.48.48,0,0,1,.05-.17l-.06.1h0c-.06,0-.06.06,0,0a.28.28,0,0,1,.3,0A.65.65,0,0,1,3.5,8c.18.3,0,.54-.18.79-.07.1.12-.05,0,0s.15,0,.18-.05l.24,0c-.24,0,.14,0,.15,0A1.27,1.27,0,0,0,5.13,7.41,1.24,1.24,0,0,0,3.9,6.18"/><path class="cls-1" d="M15.39,39.76c1.09,3.44,7.66,3.36,10.4,3.12,2.4-.2,8.87-1.38,7.55-5.21-.5-1.48-2.86-.85-2.35.64s-5.8,2.19-6.55,2.2c-1.12,0-6.23.05-6.69-1.4s-2.83-.85-2.36.65"/><path class="cls-1" d="M2.31,15.33a14.86,14.86,0,0,1,3.46-.18c1,.06,1-1.47,0-1.53a16.22,16.22,0,0,0-3.87.24c-1,.17-.56,1.64.41,1.47"/><path class="cls-1" d="M.94,3.35A8.49,8.49,0,0,1,4.62,3c1,.12,1-1.41,0-1.53a9.44,9.44,0,0,0-4.09.39C-.4,2.18,0,3.66.94,3.35"/><path class="cls-1" d="M36.85,1.94a8.5,8.5,0,0,1,3.68-.34c1,.12,1-1.41,0-1.53a9.6,9.6,0,0,0-4.09.39c-.93.3-.54,1.78.41,1.48"/><path class="cls-1" d="M38,14.46l4.26-.7c1-.16.56-1.63-.4-1.47l-4.27.7c-1,.16-.56,1.63.41,1.47"/></g></g></svg>