<svg xmlns="http://www.w3.org/2000/svg" viewBox="0 0 71.63 80.72"><defs><style>.cls-1{fill:#684394;}</style></defs><title>Fichier 1</title><g id="Calque_2" data-name="Calque 2"><g id="Calque_1-2" data-name="Calque 1"><path class="cls-1" d="M38.35,78.66c-3.83,0-7.61.15-11.34-.89a27.92,27.92,0,0,1-9.81-5.08A36.21,36.21,0,0,1,4.87,53.43C3.72,49,3.51,44.34,3,39.8c-.41-4-1.13-8.09-1-12.12A25.16,25.16,0,0,1,10.4,10.05,32.27,32.27,0,0,1,30,2.15c7.86-.53,16.27-.4,23.57,2.89A27.62,27.62,0,0,1,67.37,18.26c3.41,7.3,1.94,15,1.14,22.66-1,9.7-2.35,18.65-8.69,26.46C54.51,73.92,46.9,78.52,38.35,78.66a1,1,0,0,0,0,2.06c16.47-.27,29-15.28,31.25-30.75.77-5.23,1.13-10.54,1.67-15.79A35.1,35.1,0,0,0,71,22.61,27.91,27.91,0,0,0,59.6,6.1C52.86,1.39,45,0,36.9,0S20.84.68,13.66,5.07A28.39,28.39,0,0,0,1.12,20.84a28,28,0,0,0-1,10.7Q.9,39.88,1.85,48.22a39,39,0,0,0,12,24.31,31.86,31.86,0,0,0,10.72,6.63c4.51,1.63,9,1.56,13.77,1.56a1,1,0,0,0,0-2.06"/></g></g></svg>