<svg xmlns="http://www.w3.org/2000/svg" viewBox="0 0 59.45 84.68"><defs><style>.cls-1{fill:#684394;}</style></defs><title>Fichier 3</title><g id="Calque_2" data-name="Calque 2"><g id="Calque_1-2" data-name="Calque 1"><path class="cls-1" d="M32.09,84.68C21.35,84.68,1,62.43.06,40.61c-.46-11,1.7-16.92,7.06-26.78C11.74,5.32,19.34.28,28,0,37-.28,45.66,4.83,51.2,13.67h0C55,19.73,59,27.37,59.41,38.12c.94,22.49-16.64,46.12-27,46.55ZM28.68,1.82H28c-8,.25-15,4.94-19.31,12.87-5.43,10-7.28,15.39-6.84,25.84.91,21.67,21.44,42.7,30.45,42.31,9.47-.4,26.15-23.5,25.26-44.65-.44-10.33-4.25-17.71-7.93-23.56C44.6,6.57,36.8,1.82,28.68,1.82Z"/></g></g></svg>