<svg xmlns="http://www.w3.org/2000/svg" viewBox="0 0 59.72 90.28"><defs><style>.cls-1{fill:#684394;}</style></defs><title>Fichier 2</title><g id="Calque_2" data-name="Calque 2"><g id="Calque_1-2" data-name="Calque 1"><path class="cls-1" d="M29.84,88.34c-7.08,0-13.3-4.74-17.29-10.26C7.41,71,6.38,63,5.36,54.54,4.25,45.34,2.91,36.12,2,26.89A20.54,20.54,0,0,1,8.14,10C18,.38,35.53-.47,47,6.55A21.75,21.75,0,0,1,57.53,21.31c.61,3.68-.09,7.36-.53,11q-.84,7-1.69,14C54.14,56.07,54,66.47,49,75.15c-4,6.95-10.82,13-19.19,13.19a1,1,0,0,0,0,1.94c7.15-.16,13.39-4.22,17.78-9.67,5.66-7,7.31-15,8.36-23.73q1-8.18,2-16.37C58.57,35.4,59.6,30.17,59.72,25a22.43,22.43,0,0,0-7.6-17.1C41.37-1.75,23-2.49,11,5.28A23.59,23.59,0,0,0,.28,20.79c-.69,4.06,0,8.08.54,12.12l2,17c1.24,10.27,1.76,20.5,8,29.19,4.38,6.08,11.18,11.22,19,11.22a1,1,0,0,0,0-1.94"/></g></g></svg>